<?xml version="1.0" encoding="UTF-8" standalone="no"?>
<!DOCTYPE svg PUBLIC "-//W3C//DTD SVG 1.1//EN"
 "http://www.w3.org/Graphics/SVG/1.1/DTD/svg11.dtd">
<!-- Generated by graphviz version 2.43.0 (0)
 -->
<!-- Title: lr Pages: 1 -->
<svg width="250pt" height="635pt"
 viewBox="0.00 0.00 250.41 635.29" xmlns="http://www.w3.org/2000/svg" xmlns:xlink="http://www.w3.org/1999/xlink">
<g id="graph0" class="graph" transform="scale(1 1) rotate(0) translate(4 631.29)">
<title>lr</title>
<polygon fill="white" stroke="transparent" points="-4,4 -4,-631.29 246.41,-631.29 246.41,4 -4,4"/>
<!-- Transpose (op#0)\n input0 A\n output0 tA -->
<g id="node1" class="node">
<title>Transpose (op#0)\n input0 A\n output0 tA</title>
<g id="a_node1"><a xlink:href="javascript:alert('')" xlink:title="Transpose (op#0)\n input0 A\n output0 tA">
<ellipse fill="yellow" stroke="yellow" cx="141.3" cy="-517.81" rx="101.23" ry="37.45"/>
<text text-anchor="middle" x="141.3" y="-529.11" font-family="Times,serif" font-size="14.00">Transpose (op#0)</text>
<text text-anchor="middle" x="141.3" y="-514.11" font-family="Times,serif" font-size="14.00"> input0 A</text>
<text text-anchor="middle" x="141.3" y="-499.11" font-family="Times,serif" font-size="14.00"> output0 tA</text>
</a>
</g>
</g>
<!-- tA0 -->
<g id="node3" class="node">
<title>tA0</title>
<polygon fill="none" stroke="black" points="168.3,-418.88 168.3,-433.79 152.48,-444.33 130.11,-444.33 114.3,-433.79 114.3,-418.88 130.11,-408.33 152.48,-408.33 168.3,-418.88"/>
<text text-anchor="middle" x="141.3" y="-422.63" font-family="Times,serif" font-size="14.00">tA</text>
</g>
<!-- Transpose (op#0)\n input0 A\n output0 tA&#45;&gt;tA0 -->
<g id="edge2" class="edge">
<title>Transpose (op#0)\n input0 A\n output0 tA&#45;&gt;tA0</title>
<path fill="none" stroke="black" d="M141.3,-480.16C141.3,-471.66 141.3,-462.77 141.3,-454.75"/>
<polygon fill="black" stroke="black" points="144.8,-454.48 141.3,-444.48 137.8,-454.48 144.8,-454.48"/>
</g>
<!-- A0 -->
<g id="node2" class="node">
<title>A0</title>
<polygon fill="none" stroke="black" points="168.3,-601.83 168.3,-616.74 152.48,-627.29 130.11,-627.29 114.3,-616.74 114.3,-601.83 130.11,-591.29 152.48,-591.29 168.3,-601.83"/>
<text text-anchor="middle" x="141.3" y="-605.59" font-family="Times,serif" font-size="14.00">A</text>
</g>
<!-- A0&#45;&gt;Transpose (op#0)\n input0 A\n output0 tA -->
<g id="edge1" class="edge">
<title>A0&#45;&gt;Transpose (op#0)\n input0 A\n output0 tA</title>
<path fill="none" stroke="black" d="M141.3,-591.03C141.3,-583.73 141.3,-574.83 141.3,-565.8"/>
<polygon fill="black" stroke="black" points="144.8,-565.64 141.3,-555.64 137.8,-565.64 144.8,-565.64"/>
</g>
<!-- MatMul (op#1)\n input0 X\n input1 tA\n output0 XA -->
<g id="node4" class="node">
<title>MatMul (op#1)\n input0 X\n input1 tA\n output0 XA</title>
<g id="a_node4"><a xlink:href="javascript:alert('')" xlink:title="MatMul (op#1)\n input0 X\n input1 tA\n output0 XA">
<ellipse fill="yellow" stroke="yellow" cx="105.3" cy="-324.25" rx="89.19" ry="48.17"/>
<text text-anchor="middle" x="105.3" y="-343.05" font-family="Times,serif" font-size="14.00">MatMul (op#1)</text>
<text text-anchor="middle" x="105.3" y="-328.05" font-family="Times,serif" font-size="14.00"> input0 X</text>
<text text-anchor="middle" x="105.3" y="-313.05" font-family="Times,serif" font-size="14.00"> input1 tA</text>
<text text-anchor="middle" x="105.3" y="-298.05" font-family="Times,serif" font-size="14.00"> output0 XA</text>
</a>
</g>
</g>
<!-- tA0&#45;&gt;MatMul (op#1)\n input0 X\n input1 tA\n output0 XA -->
<g id="edge4" class="edge">
<title>tA0&#45;&gt;MatMul (op#1)\n input0 X\n input1 tA\n output0 XA</title>
<path fill="none" stroke="black" d="M135.03,-407.9C132.31,-400.34 128.95,-391.02 125.49,-381.39"/>
<polygon fill="black" stroke="black" points="128.69,-379.95 122.01,-371.72 122.1,-382.32 128.69,-379.95"/>
</g>
<!-- XA0 -->
<g id="node6" class="node">
<title>XA0</title>
<polygon fill="none" stroke="black" points="132.3,-214.71 132.3,-229.62 116.48,-240.17 94.11,-240.17 78.3,-229.62 78.3,-214.71 94.11,-204.17 116.48,-204.17 132.3,-214.71"/>
<text text-anchor="middle" x="105.3" y="-218.47" font-family="Times,serif" font-size="14.00">XA</text>
</g>
<!-- MatMul (op#1)\n input0 X\n input1 tA\n output0 XA&#45;&gt;XA0 -->
<g id="edge5" class="edge">
<title>MatMul (op#1)\n input0 X\n input1 tA\n output0 XA&#45;&gt;XA0</title>
<path fill="none" stroke="black" d="M105.3,-276.14C105.3,-267.35 105.3,-258.45 105.3,-250.51"/>
<polygon fill="black" stroke="black" points="108.8,-250.39 105.3,-240.39 101.8,-250.39 108.8,-250.39"/>
</g>
<!-- X0 -->
<g id="node5" class="node">
<title>X0</title>
<polygon fill="none" stroke="black" points="96.3,-418.88 96.3,-433.79 80.48,-444.33 58.11,-444.33 42.3,-433.79 42.3,-418.88 58.11,-408.33 80.48,-408.33 96.3,-418.88"/>
<text text-anchor="middle" x="69.3" y="-422.63" font-family="Times,serif" font-size="14.00">X</text>
</g>
<!-- X0&#45;&gt;MatMul (op#1)\n input0 X\n input1 tA\n output0 XA -->
<g id="edge3" class="edge">
<title>X0&#45;&gt;MatMul (op#1)\n input0 X\n input1 tA\n output0 XA</title>
<path fill="none" stroke="black" d="M75.57,-407.9C78.29,-400.34 81.64,-391.02 85.1,-381.39"/>
<polygon fill="black" stroke="black" points="88.49,-382.32 88.58,-371.72 81.9,-379.95 88.49,-382.32"/>
</g>
<!-- Add (op#2)\n input0 XA\n input1 B\n output0 Y -->
<g id="node7" class="node">
<title>Add (op#2)\n input0 XA\n input1 B\n output0 Y</title>
<g id="a_node7"><a xlink:href="javascript:alert('')" xlink:title="Add (op#2)\n input0 XA\n input1 B\n output0 Y">
<ellipse fill="yellow" stroke="yellow" cx="69.3" cy="-120.08" rx="69.09" ry="48.17"/>
<text text-anchor="middle" x="69.3" y="-138.88" font-family="Times,serif" font-size="14.00">Add (op#2)</text>
<text text-anchor="middle" x="69.3" y="-123.88" font-family="Times,serif" font-size="14.00"> input0 XA</text>
<text text-anchor="middle" x="69.3" y="-108.88" font-family="Times,serif" font-size="14.00"> input1 B</text>
<text text-anchor="middle" x="69.3" y="-93.88" font-family="Times,serif" font-size="14.00"> output0 Y</text>
</a>
</g>
</g>
<!-- XA0&#45;&gt;Add (op#2)\n input0 XA\n input1 B\n output0 Y -->
<g id="edge6" class="edge">
<title>XA0&#45;&gt;Add (op#2)\n input0 XA\n input1 B\n output0 Y</title>
<path fill="none" stroke="black" d="M99.03,-203.73C96.25,-196.01 92.81,-186.45 89.27,-176.6"/>
<polygon fill="black" stroke="black" points="92.54,-175.35 85.86,-167.12 85.95,-177.72 92.54,-175.35"/>
</g>
<!-- Y0 -->
<g id="node9" class="node">
<title>Y0</title>
<polygon fill="none" stroke="black" points="96.3,-10.54 96.3,-25.46 80.48,-36 58.11,-36 42.3,-25.46 42.3,-10.54 58.11,0 80.48,0 96.3,-10.54"/>
<text text-anchor="middle" x="69.3" y="-14.3" font-family="Times,serif" font-size="14.00">Y</text>
</g>
<!-- Add (op#2)\n input0 XA\n input1 B\n output0 Y&#45;&gt;Y0 -->
<g id="edge8" class="edge">
<title>Add (op#2)\n input0 XA\n input1 B\n output0 Y&#45;&gt;Y0</title>
<path fill="none" stroke="black" d="M69.3,-71.97C69.3,-63.19 69.3,-54.28 69.3,-46.35"/>
<polygon fill="black" stroke="black" points="72.8,-46.22 69.3,-36.22 65.8,-46.22 72.8,-46.22"/>
</g>
<!-- B0 -->
<g id="node8" class="node">
<title>B0</title>
<polygon fill="none" stroke="black" points="60.3,-214.71 60.3,-229.62 44.48,-240.17 22.11,-240.17 6.3,-229.62 6.3,-214.71 22.11,-204.17 44.48,-204.17 60.3,-214.71"/>
<text text-anchor="middle" x="33.3" y="-218.47" font-family="Times,serif" font-size="14.00">B</text>
</g>
<!-- B0&#45;&gt;Add (op#2)\n input0 XA\n input1 B\n output0 Y -->
<g id="edge7" class="edge">
<title>B0&#45;&gt;Add (op#2)\n input0 XA\n input1 B\n output0 Y</title>
<path fill="none" stroke="black" d="M39.57,-203.73C42.35,-196.01 45.78,-186.45 49.33,-176.6"/>
<polygon fill="black" stroke="black" points="52.64,-177.72 52.74,-167.12 46.06,-175.35 52.64,-177.72"/>
</g>
</g>
</svg>
